<mxfile host="app.diagrams.net" agent="Mozilla/5.0 (Macintosh; Intel Mac OS X 10_15_7) AppleWebKit/605.1.15 (KHTML, like Gecko) Version/18.2 Safari/605.1.15" version="26.0.6">
  <diagram name="Page-1" id="bfe91b75-5d2c-26a0-9c1d-138518896778">
    <mxGraphModel dx="1990" dy="228" grid="1" gridSize="10" guides="1" tooltips="1" connect="1" arrows="1" fold="1" page="1" pageScale="1" pageWidth="1100" pageHeight="850" background="none" math="0" shadow="0">
      <root>
        <mxCell id="0" />
        <mxCell id="1" parent="0" />
        <mxCell id="7c3789c024ecab99-53" value="Internet" style="html=1;fillColor=#09555B;strokeColor=#BAC8D3;gradientDirection=north;strokeWidth=2;shape=mxgraph.networks.cloud;fontColor=#EEEEEE;rounded=0;shadow=0;comic=0;align=center;fontSize=28;labelBackgroundColor=none;" parent="1" vertex="1">
          <mxGeometry x="220" y="2055" width="230" height="105" as="geometry" />
        </mxCell>
        <mxCell id="7c3789c024ecab99-65" value="" style="fontColor=#EEEEEE;verticalAlign=top;verticalLabelPosition=bottom;labelPosition=center;align=center;html=1;fillColor=#09555B;strokeColor=#BAC8D3;gradientDirection=north;strokeWidth=2;shape=mxgraph.networks.pc;rounded=0;shadow=0;comic=0;labelBackgroundColor=none;" parent="1" vertex="1">
          <mxGeometry x="1610" y="2465" width="60" height="40" as="geometry" />
        </mxCell>
        <mxCell id="7c3789c024ecab99-66" value="" style="fontColor=#EEEEEE;verticalAlign=top;verticalLabelPosition=bottom;labelPosition=center;align=center;html=1;fillColor=#09555B;strokeColor=#BAC8D3;gradientDirection=north;strokeWidth=2;shape=mxgraph.networks.printer;rounded=0;shadow=0;comic=0;labelBackgroundColor=none;" parent="1" vertex="1">
          <mxGeometry x="1850" y="2460" width="50" height="50" as="geometry" />
        </mxCell>
        <mxCell id="aWgSfp9aVasEZMajH60C-1" value="" style="fontColor=#0066CC;verticalAlign=top;verticalLabelPosition=bottom;labelPosition=center;align=center;html=1;outlineConnect=0;fillColor=#CCCCCC;strokeColor=#6881B3;gradientColor=none;gradientDirection=north;strokeWidth=2;shape=mxgraph.networks.wireless_hub;" vertex="1" parent="1">
          <mxGeometry x="580" y="2070" width="100" height="85" as="geometry" />
        </mxCell>
        <mxCell id="aWgSfp9aVasEZMajH60C-2" value="" style="fontColor=#0066CC;verticalAlign=top;verticalLabelPosition=bottom;labelPosition=center;align=center;html=1;outlineConnect=0;fillColor=#CCCCCC;strokeColor=#6881B3;gradientColor=none;gradientDirection=north;strokeWidth=2;shape=mxgraph.networks.router;" vertex="1" parent="1">
          <mxGeometry x="940" y="2130" width="100" height="30" as="geometry" />
        </mxCell>
        <mxCell id="aWgSfp9aVasEZMajH60C-24" value="" style="group" vertex="1" connectable="0" parent="1">
          <mxGeometry x="1800" y="2270" width="130" height="122.5" as="geometry" />
        </mxCell>
        <mxCell id="aWgSfp9aVasEZMajH60C-8" value="" style="verticalAlign=top;verticalLabelPosition=bottom;labelPosition=center;align=center;html=1;outlineConnect=0;fillColor=#f8cecc;strokeColor=#b85450;gradientDirection=north;strokeWidth=2;shape=mxgraph.networks.wireless_hub;movable=1;resizable=1;rotatable=1;deletable=1;editable=1;locked=0;connectable=1;" vertex="1" parent="aWgSfp9aVasEZMajH60C-24">
          <mxGeometry x="30" width="100" height="85" as="geometry" />
        </mxCell>
        <mxCell id="aWgSfp9aVasEZMajH60C-16" value="&lt;span style=&quot;color: rgb(0, 0, 0);&quot;&gt;DECO X50&lt;/span&gt;" style="text;html=1;align=center;verticalAlign=middle;whiteSpace=wrap;rounded=0;fontColor=#EEEEEE;movable=0;resizable=0;rotatable=0;deletable=0;editable=0;locked=1;connectable=0;" vertex="1" parent="aWgSfp9aVasEZMajH60C-24">
          <mxGeometry x="50" y="92.5" width="60" height="30" as="geometry" />
        </mxCell>
        <mxCell id="aWgSfp9aVasEZMajH60C-22" value="&lt;font color=&quot;#000000&quot;&gt;&lt;span style=&quot;caret-color: rgb(0, 0, 0);&quot;&gt;Bureau&lt;/span&gt;&lt;/font&gt;&lt;div&gt;&lt;font color=&quot;#000000&quot;&gt;&lt;span style=&quot;caret-color: rgb(0, 0, 0);&quot;&gt;Sous-sol&lt;/span&gt;&lt;/font&gt;&lt;/div&gt;" style="text;html=1;align=center;verticalAlign=middle;whiteSpace=wrap;rounded=0;fontColor=#EEEEEE;movable=0;resizable=0;rotatable=0;deletable=0;editable=0;locked=1;connectable=0;" vertex="1" parent="aWgSfp9aVasEZMajH60C-24">
          <mxGeometry width="60" height="30" as="geometry" />
        </mxCell>
        <mxCell id="aWgSfp9aVasEZMajH60C-25" value="" style="group" vertex="1" connectable="0" parent="1">
          <mxGeometry x="2060" y="2272.09" width="130" height="120.41000000000008" as="geometry" />
        </mxCell>
        <mxCell id="aWgSfp9aVasEZMajH60C-9" value="" style="verticalAlign=top;verticalLabelPosition=bottom;labelPosition=center;align=center;html=1;outlineConnect=0;fillColor=#f8cecc;strokeColor=#b85450;gradientDirection=north;strokeWidth=2;shape=mxgraph.networks.wireless_hub;" vertex="1" parent="aWgSfp9aVasEZMajH60C-25">
          <mxGeometry x="30" width="100" height="85" as="geometry" />
        </mxCell>
        <mxCell id="aWgSfp9aVasEZMajH60C-14" value="&lt;span style=&quot;color: rgb(0, 0, 0);&quot;&gt;DECO X50&lt;/span&gt;" style="text;html=1;align=center;verticalAlign=middle;whiteSpace=wrap;rounded=0;fontColor=#EEEEEE;" vertex="1" parent="aWgSfp9aVasEZMajH60C-25">
          <mxGeometry x="50" y="90.41000000000008" width="60" height="30" as="geometry" />
        </mxCell>
        <mxCell id="aWgSfp9aVasEZMajH60C-20" value="&lt;span style=&quot;color: rgb(0, 0, 0);&quot;&gt;Abris VÃ©lo&lt;/span&gt;" style="text;html=1;align=center;verticalAlign=middle;whiteSpace=wrap;rounded=0;fontColor=#EEEEEE;" vertex="1" parent="aWgSfp9aVasEZMajH60C-25">
          <mxGeometry width="60" height="30" as="geometry" />
        </mxCell>
        <mxCell id="aWgSfp9aVasEZMajH60C-26" value="" style="group" vertex="1" connectable="0" parent="1">
          <mxGeometry x="1890" y="1580" width="120" height="120" as="geometry" />
        </mxCell>
        <mxCell id="aWgSfp9aVasEZMajH60C-5" value="" style="verticalAlign=top;verticalLabelPosition=bottom;labelPosition=center;align=center;html=1;outlineConnect=0;fillColor=#f8cecc;strokeColor=#b85450;gradientDirection=north;strokeWidth=2;shape=mxgraph.networks.wireless_hub;" vertex="1" parent="aWgSfp9aVasEZMajH60C-26">
          <mxGeometry x="20" width="100" height="85" as="geometry" />
        </mxCell>
        <mxCell id="aWgSfp9aVasEZMajH60C-12" value="&lt;span style=&quot;color: rgb(0, 0, 0);&quot;&gt;DECO X50&lt;/span&gt;" style="text;html=1;align=center;verticalAlign=middle;whiteSpace=wrap;rounded=0;fontColor=#EEEEEE;" vertex="1" parent="aWgSfp9aVasEZMajH60C-26">
          <mxGeometry x="40" y="90" width="60" height="30" as="geometry" />
        </mxCell>
        <mxCell id="aWgSfp9aVasEZMajH60C-19" value="&lt;span style=&quot;color: rgb(0, 0, 0);&quot;&gt;Appenti&lt;/span&gt;" style="text;html=1;align=center;verticalAlign=middle;whiteSpace=wrap;rounded=0;fontColor=#EEEEEE;" vertex="1" parent="aWgSfp9aVasEZMajH60C-26">
          <mxGeometry width="60" height="30" as="geometry" />
        </mxCell>
        <mxCell id="aWgSfp9aVasEZMajH60C-27" value="" style="group" vertex="1" connectable="0" parent="1">
          <mxGeometry x="1660" y="1580" width="120" height="124.58999999999992" as="geometry" />
        </mxCell>
        <mxCell id="aWgSfp9aVasEZMajH60C-34" style="edgeStyle=orthogonalEdgeStyle;rounded=0;orthogonalLoop=1;jettySize=auto;html=1;exitX=1;exitY=0.7;exitDx=0;exitDy=0;exitPerimeter=0;strokeColor=#0B4D6A;endArrow=none;endFill=0;strokeWidth=2;" edge="1" parent="aWgSfp9aVasEZMajH60C-27" source="aWgSfp9aVasEZMajH60C-4">
          <mxGeometry relative="1" as="geometry">
            <mxPoint x="250" y="59.472352941176496" as="targetPoint" />
          </mxGeometry>
        </mxCell>
        <mxCell id="aWgSfp9aVasEZMajH60C-35" value="&lt;span style=&quot;color: rgb(0, 0, 0);&quot;&gt;2,5 Gb/s&lt;/span&gt;" style="edgeLabel;html=1;align=center;verticalAlign=middle;resizable=0;points=[];strokeColor=#BAC8D3;fontColor=#EEEEEE;fillColor=#09555B;" vertex="1" connectable="0" parent="aWgSfp9aVasEZMajH60C-34">
          <mxGeometry x="0.1859" y="2" relative="1" as="geometry">
            <mxPoint as="offset" />
          </mxGeometry>
        </mxCell>
        <mxCell id="aWgSfp9aVasEZMajH60C-4" value="" style="verticalAlign=top;verticalLabelPosition=bottom;labelPosition=center;align=center;html=1;outlineConnect=0;fillColor=#f8cecc;strokeColor=#b85450;gradientDirection=north;strokeWidth=2;shape=mxgraph.networks.wireless_hub;" vertex="1" parent="aWgSfp9aVasEZMajH60C-27">
          <mxGeometry x="20" width="100" height="85" as="geometry" />
        </mxCell>
        <mxCell id="aWgSfp9aVasEZMajH60C-11" value="&lt;span style=&quot;color: rgb(0, 0, 0);&quot;&gt;DECO X50&lt;/span&gt;" style="text;html=1;align=center;verticalAlign=middle;whiteSpace=wrap;rounded=0;fontColor=#EEEEEE;" vertex="1" parent="aWgSfp9aVasEZMajH60C-27">
          <mxGeometry x="40" y="94.58999999999992" width="60" height="30" as="geometry" />
        </mxCell>
        <mxCell id="aWgSfp9aVasEZMajH60C-18" value="&lt;span style=&quot;color: rgb(0, 0, 0);&quot;&gt;Chalet Welcome&lt;/span&gt;" style="text;html=1;align=center;verticalAlign=middle;whiteSpace=wrap;rounded=0;fontColor=#EEEEEE;" vertex="1" parent="aWgSfp9aVasEZMajH60C-27">
          <mxGeometry y="4.589999999999918" width="60" height="30" as="geometry" />
        </mxCell>
        <mxCell id="aWgSfp9aVasEZMajH60C-28" value="" style="group" vertex="1" connectable="0" parent="1">
          <mxGeometry x="1560" y="2270" width="130" height="122.5" as="geometry" />
        </mxCell>
        <mxCell id="aWgSfp9aVasEZMajH60C-6" value="" style="verticalAlign=top;verticalLabelPosition=bottom;labelPosition=center;align=center;html=1;outlineConnect=0;fillColor=#f8cecc;strokeColor=#b85450;gradientDirection=north;strokeWidth=2;shape=mxgraph.networks.wireless_hub;" vertex="1" parent="aWgSfp9aVasEZMajH60C-28">
          <mxGeometry x="30" width="100" height="85" as="geometry" />
        </mxCell>
        <mxCell id="aWgSfp9aVasEZMajH60C-21" value="&lt;span style=&quot;color: rgb(0, 0, 0);&quot;&gt;Chambre&lt;/span&gt;&lt;div&gt;&lt;span style=&quot;color: rgb(0, 0, 0);&quot;&gt;PE&lt;/span&gt;&lt;/div&gt;" style="text;html=1;align=center;verticalAlign=middle;whiteSpace=wrap;rounded=0;fontColor=#EEEEEE;" vertex="1" parent="aWgSfp9aVasEZMajH60C-28">
          <mxGeometry width="60" height="30" as="geometry" />
        </mxCell>
        <mxCell id="aWgSfp9aVasEZMajH60C-31" style="edgeStyle=orthogonalEdgeStyle;rounded=0;orthogonalLoop=1;jettySize=auto;html=1;exitX=0.5;exitY=0;exitDx=0;exitDy=0;exitPerimeter=0;strokeColor=#0B4D6A;entryX=0;entryY=0.7;entryDx=0;entryDy=0;entryPerimeter=0;endArrow=none;endFill=0;strokeWidth=2;" edge="1" parent="1" source="aWgSfp9aVasEZMajH60C-2" target="aWgSfp9aVasEZMajH60C-4">
          <mxGeometry relative="1" as="geometry">
            <mxPoint x="1470" y="1630" as="targetPoint" />
          </mxGeometry>
        </mxCell>
        <mxCell id="aWgSfp9aVasEZMajH60C-49" value="&lt;span style=&quot;color: rgb(0, 0, 0);&quot;&gt;2,5 Gb/s&lt;/span&gt;" style="edgeLabel;html=1;align=center;verticalAlign=middle;resizable=0;points=[];strokeColor=#BAC8D3;fontColor=#EEEEEE;fillColor=#09555B;" vertex="1" connectable="0" parent="aWgSfp9aVasEZMajH60C-31">
          <mxGeometry x="-0.8004" y="2" relative="1" as="geometry">
            <mxPoint as="offset" />
          </mxGeometry>
        </mxCell>
        <mxCell id="aWgSfp9aVasEZMajH60C-47" value="" style="html=1;outlineConnect=0;fillColor=#CCCCCC;strokeColor=#6881B3;gradientColor=none;gradientDirection=north;strokeWidth=2;shape=mxgraph.networks.comm_link_edge;html=1;rounded=0;" edge="1" parent="1">
          <mxGeometry width="100" height="100" relative="1" as="geometry">
            <mxPoint x="1880" y="2225" as="sourcePoint" />
            <mxPoint x="1880" y="2030" as="targetPoint" />
          </mxGeometry>
        </mxCell>
        <mxCell id="aWgSfp9aVasEZMajH60C-48" value="" style="html=1;outlineConnect=0;fillColor=#CCCCCC;strokeColor=#6881B3;gradientColor=none;gradientDirection=north;strokeWidth=2;shape=mxgraph.networks.comm_link_edge;html=1;rounded=0;" edge="1" parent="1">
          <mxGeometry width="100" height="100" relative="1" as="geometry">
            <mxPoint x="2080" y="2210" as="sourcePoint" />
            <mxPoint x="2000" y="2040" as="targetPoint" />
          </mxGeometry>
        </mxCell>
        <mxCell id="aWgSfp9aVasEZMajH60C-50" value="&lt;span style=&quot;color: rgb(0, 0, 0);&quot;&gt;LIVEBOX 7 orange&lt;/span&gt;" style="text;html=1;align=center;verticalAlign=middle;whiteSpace=wrap;rounded=0;fontColor=#EEEEEE;" vertex="1" parent="1">
          <mxGeometry x="600" y="2160" width="70" height="30" as="geometry" />
        </mxCell>
        <mxCell id="aWgSfp9aVasEZMajH60C-51" value="" style="endArrow=none;html=1;rounded=0;strokeColor=#0B4D6A;exitX=0.98;exitY=0.94;exitDx=0;exitDy=0;exitPerimeter=0;strokeWidth=2;" edge="1" parent="1" source="aWgSfp9aVasEZMajH60C-1" target="aWgSfp9aVasEZMajH60C-2">
          <mxGeometry width="50" height="50" relative="1" as="geometry">
            <mxPoint x="710" y="2150" as="sourcePoint" />
            <mxPoint x="940" y="2150" as="targetPoint" />
          </mxGeometry>
        </mxCell>
        <mxCell id="aWgSfp9aVasEZMajH60C-52" value="&lt;span style=&quot;color: rgb(0, 0, 0);&quot;&gt;10 Gb/s&lt;/span&gt;" style="edgeLabel;html=1;align=center;verticalAlign=middle;resizable=0;points=[];strokeColor=#BAC8D3;fontColor=#EEEEEE;fillColor=#09555B;" vertex="1" connectable="0" parent="aWgSfp9aVasEZMajH60C-51">
          <mxGeometry x="-0.3263" y="1" relative="1" as="geometry">
            <mxPoint as="offset" />
          </mxGeometry>
        </mxCell>
        <mxCell id="aWgSfp9aVasEZMajH60C-53" value="" style="endArrow=none;html=1;rounded=0;strokeColor=#0B4D6A;exitX=0.95;exitY=0.05;exitDx=0;exitDy=0;exitPerimeter=0;entryX=0;entryY=0.7;entryDx=0;entryDy=0;entryPerimeter=0;strokeWidth=2;" edge="1" parent="1" source="aWgSfp9aVasEZMajH60C-2" target="aWgSfp9aVasEZMajH60C-3">
          <mxGeometry width="50" height="50" relative="1" as="geometry">
            <mxPoint x="920" y="1930" as="sourcePoint" />
            <mxPoint x="970" y="1880" as="targetPoint" />
          </mxGeometry>
        </mxCell>
        <mxCell id="aWgSfp9aVasEZMajH60C-54" value="&lt;span style=&quot;color: rgb(0, 0, 0);&quot;&gt;2,5 Gb/s&lt;/span&gt;" style="edgeLabel;html=1;align=center;verticalAlign=middle;resizable=0;points=[];strokeColor=#BAC8D3;fontColor=#EEEEEE;fillColor=#09555B;" vertex="1" connectable="0" parent="aWgSfp9aVasEZMajH60C-53">
          <mxGeometry x="-0.0291" y="-2" relative="1" as="geometry">
            <mxPoint as="offset" />
          </mxGeometry>
        </mxCell>
        <mxCell id="aWgSfp9aVasEZMajH60C-57" value="" style="endArrow=none;html=1;rounded=0;strokeColor=#0B4D6A;strokeWidth=2;" edge="1" parent="1">
          <mxGeometry width="50" height="50" relative="1" as="geometry">
            <mxPoint x="1040" y="2140" as="sourcePoint" />
            <mxPoint x="1240" y="2140" as="targetPoint" />
          </mxGeometry>
        </mxCell>
        <mxCell id="aWgSfp9aVasEZMajH60C-59" value="&lt;span style=&quot;color: rgb(0, 0, 0);&quot;&gt;2,5 Gb/s&lt;/span&gt;" style="edgeLabel;html=1;align=center;verticalAlign=middle;resizable=0;points=[];strokeColor=#BAC8D3;fontColor=#EEEEEE;fillColor=#09555B;" vertex="1" connectable="0" parent="aWgSfp9aVasEZMajH60C-57">
          <mxGeometry x="0.2976" y="3" relative="1" as="geometry">
            <mxPoint as="offset" />
          </mxGeometry>
        </mxCell>
        <mxCell id="aWgSfp9aVasEZMajH60C-58" value="" style="endArrow=none;html=1;rounded=0;strokeColor=#0B4D6A;exitX=0.02;exitY=0.94;exitDx=0;exitDy=0;exitPerimeter=0;strokeWidth=2;" edge="1" parent="1" source="aWgSfp9aVasEZMajH60C-6">
          <mxGeometry width="50" height="50" relative="1" as="geometry">
            <mxPoint x="1560" y="1870" as="sourcePoint" />
            <mxPoint x="1240" y="2140" as="targetPoint" />
          </mxGeometry>
        </mxCell>
        <mxCell id="aWgSfp9aVasEZMajH60C-61" value="" style="endArrow=none;html=1;rounded=0;strokeColor=#0B4D6A;" edge="1" parent="1" target="aWgSfp9aVasEZMajH60C-6">
          <mxGeometry width="50" height="50" relative="1" as="geometry">
            <mxPoint x="1640" y="2465" as="sourcePoint" />
            <mxPoint x="1690" y="2415" as="targetPoint" />
          </mxGeometry>
        </mxCell>
        <mxCell id="aWgSfp9aVasEZMajH60C-17" value="&lt;span style=&quot;color: rgb(0, 0, 0);&quot;&gt;DECO X50-4G&lt;/span&gt;" style="text;html=1;align=center;verticalAlign=middle;whiteSpace=wrap;rounded=0;fontColor=#EEEEEE;" vertex="1" parent="1">
          <mxGeometry x="1640" y="2362.5" width="60" height="30" as="geometry" />
        </mxCell>
        <mxCell id="aWgSfp9aVasEZMajH60C-62" value="" style="endArrow=none;html=1;rounded=0;strokeColor=#0B4D6A;" edge="1" parent="1">
          <mxGeometry width="50" height="50" relative="1" as="geometry">
            <mxPoint x="1874.41" y="2460" as="sourcePoint" />
            <mxPoint x="1874.41" y="2350" as="targetPoint" />
          </mxGeometry>
        </mxCell>
        <mxCell id="aWgSfp9aVasEZMajH60C-63" value="" style="group" vertex="1" connectable="0" parent="1">
          <mxGeometry x="1770" y="1870" width="120" height="130" as="geometry" />
        </mxCell>
        <mxCell id="aWgSfp9aVasEZMajH60C-74" value="" style="group" vertex="1" connectable="0" parent="aWgSfp9aVasEZMajH60C-63">
          <mxGeometry x="20" y="-40" width="100" height="130" as="geometry" />
        </mxCell>
        <mxCell id="aWgSfp9aVasEZMajH60C-3" value="" style="verticalAlign=top;verticalLabelPosition=bottom;labelPosition=center;align=center;html=1;outlineConnect=0;fillColor=#f8cecc;strokeColor=#b85450;gradientDirection=north;strokeWidth=2;shape=mxgraph.networks.wireless_hub;" vertex="1" parent="aWgSfp9aVasEZMajH60C-74">
          <mxGeometry width="100" height="85" as="geometry" />
        </mxCell>
        <mxCell id="aWgSfp9aVasEZMajH60C-13" value="&lt;span style=&quot;color: rgb(0, 0, 0);&quot;&gt;DECO Principal X50-5G&lt;/span&gt;" style="text;html=1;align=center;verticalAlign=middle;whiteSpace=wrap;rounded=0;fontColor=#EEEEEE;" vertex="1" parent="aWgSfp9aVasEZMajH60C-74">
          <mxGeometry x="20" y="100" width="60" height="30" as="geometry" />
        </mxCell>
        <mxCell id="aWgSfp9aVasEZMajH60C-64" value="" style="fontColor=#0066CC;verticalAlign=top;verticalLabelPosition=bottom;labelPosition=center;align=center;html=1;outlineConnect=0;fillColor=#CCCCCC;strokeColor=#6881B3;gradientColor=none;gradientDirection=north;strokeWidth=2;shape=mxgraph.networks.router;" vertex="1" parent="1">
          <mxGeometry x="2340" y="1870" width="100" height="30" as="geometry" />
        </mxCell>
        <mxCell id="aWgSfp9aVasEZMajH60C-65" value="" style="endArrow=none;html=1;rounded=0;strokeColor=#0B4D6A;exitX=0.98;exitY=0.94;exitDx=0;exitDy=0;exitPerimeter=0;strokeWidth=2;entryX=0;entryY=0.5;entryDx=0;entryDy=0;entryPerimeter=0;" edge="1" parent="1" target="aWgSfp9aVasEZMajH60C-64">
          <mxGeometry width="50" height="50" relative="1" as="geometry">
            <mxPoint x="1890" y="1904" as="sourcePoint" />
            <mxPoint x="2152" y="1900" as="targetPoint" />
          </mxGeometry>
        </mxCell>
        <mxCell id="aWgSfp9aVasEZMajH60C-66" value="&lt;span style=&quot;color: rgb(0, 0, 0);&quot;&gt;1 Gb/s&lt;/span&gt;" style="edgeLabel;html=1;align=center;verticalAlign=middle;resizable=0;points=[];strokeColor=#BAC8D3;fontColor=#EEEEEE;fillColor=#09555B;" vertex="1" connectable="0" parent="aWgSfp9aVasEZMajH60C-65">
          <mxGeometry x="-0.3263" y="1" relative="1" as="geometry">
            <mxPoint as="offset" />
          </mxGeometry>
        </mxCell>
        <mxCell id="aWgSfp9aVasEZMajH60C-67" value="&lt;font color=&quot;#000000&quot;&gt;&lt;span style=&quot;caret-color: rgb(0, 0, 0);&quot;&gt;Wifi 7&lt;/span&gt;&lt;/font&gt;" style="text;html=1;align=center;verticalAlign=middle;whiteSpace=wrap;rounded=0;fontColor=#EEEEEE;" vertex="1" parent="1">
          <mxGeometry x="1720" y="1550" width="60" height="30" as="geometry" />
        </mxCell>
        <mxCell id="aWgSfp9aVasEZMajH60C-68" value="&lt;font color=&quot;#000000&quot;&gt;&lt;span style=&quot;caret-color: rgb(0, 0, 0);&quot;&gt;Wifi 7&lt;/span&gt;&lt;/font&gt;" style="text;html=1;align=center;verticalAlign=middle;whiteSpace=wrap;rounded=0;fontColor=#EEEEEE;" vertex="1" parent="1">
          <mxGeometry x="1950" y="1550" width="60" height="30" as="geometry" />
        </mxCell>
        <mxCell id="aWgSfp9aVasEZMajH60C-69" value="&lt;font color=&quot;#000000&quot;&gt;&lt;span style=&quot;caret-color: rgb(0, 0, 0);&quot;&gt;Wifi 7&lt;/span&gt;&lt;/font&gt;" style="text;html=1;align=center;verticalAlign=middle;whiteSpace=wrap;rounded=0;fontColor=#EEEEEE;" vertex="1" parent="1">
          <mxGeometry x="1630" y="2242.09" width="60" height="30" as="geometry" />
        </mxCell>
        <mxCell id="aWgSfp9aVasEZMajH60C-70" value="&lt;font color=&quot;#000000&quot;&gt;&lt;span style=&quot;caret-color: rgb(0, 0, 0);&quot;&gt;Wifi 6&lt;/span&gt;&lt;/font&gt;" style="text;html=1;align=center;verticalAlign=middle;whiteSpace=wrap;rounded=0;fontColor=#EEEEEE;" vertex="1" parent="1">
          <mxGeometry x="1830" y="1800" width="60" height="30" as="geometry" />
        </mxCell>
        <mxCell id="aWgSfp9aVasEZMajH60C-71" value="&lt;font color=&quot;#000000&quot;&gt;&lt;span style=&quot;caret-color: rgb(0, 0, 0);&quot;&gt;Wifi 6&lt;/span&gt;&lt;/font&gt;" style="text;html=1;align=center;verticalAlign=middle;whiteSpace=wrap;rounded=0;fontColor=#EEEEEE;" vertex="1" parent="1">
          <mxGeometry x="2130" y="2242.09" width="60" height="30" as="geometry" />
        </mxCell>
        <mxCell id="aWgSfp9aVasEZMajH60C-72" value="&lt;font color=&quot;#000000&quot;&gt;&lt;span style=&quot;caret-color: rgb(0, 0, 0);&quot;&gt;Wifi 6&lt;/span&gt;&lt;/font&gt;" style="text;html=1;align=center;verticalAlign=middle;whiteSpace=wrap;rounded=0;fontColor=#EEEEEE;" vertex="1" parent="1">
          <mxGeometry x="1870" y="2242.09" width="60" height="30" as="geometry" />
        </mxCell>
        <mxCell id="aWgSfp9aVasEZMajH60C-23" value="&lt;font color=&quot;#000000&quot;&gt;&lt;span style=&quot;caret-color: rgb(0, 0, 0);&quot;&gt;Salon&lt;/span&gt;&lt;/font&gt;" style="text;html=1;align=center;verticalAlign=middle;whiteSpace=wrap;rounded=0;fontColor=#EEEEEE;" vertex="1" parent="1">
          <mxGeometry x="1770" y="1830" width="60" height="30" as="geometry" />
        </mxCell>
      </root>
    </mxGraphModel>
  </diagram>
</mxfile>
